<svg xmlns="http://www.w3.org/2000/svg" xmlns:svg="http://www.w3.org/2000/svg" id="svg4247" width="2in" height="2in" version="1.1" viewBox="0 0 180 180"><metadata id="metadata4252"/><g id="layer1" transform="translate(0,-872.36215)"><g id="g4946" transform="translate(1.1695387,-0.74733966)"><path id="path4289" d="m 88.866183,875.94028 -75.696734,43.20859 75.696734,43.703 0,0.003 0.0029,-0.003 0.0029,0.003 0,-0.003 75.693897,-43.703 -75.693897,-43.20859 -0.0057,0 z" style="fill:#87cdde;fill-opacity:1;fill-rule:evenodd;stroke:#fff;stroke-width:0;stroke-linecap:butt;stroke-linejoin:round;stroke-miterlimit:4;stroke-dasharray:none;stroke-opacity:1"/><path style="fill:#5fbcd3;fill-opacity:1;fill-rule:evenodd;stroke:#fff;stroke-width:0;stroke-linecap:butt;stroke-linejoin:round;stroke-miterlimit:4;stroke-dasharray:none;stroke-opacity:1" id="path4842" d="m 164.0183,1006.3251 0.42862,-87.15958 -75.696273,43.7038 -0.0025,-10e-4 0.0011,0.004 -0.004,0.001 0.0025,10e-4 9.57e-4,87.40438 75.266696,-43.9486 0.003,0 z"/><path id="path4844" d="m 13.525673,1006.2164 75.268109,43.9509 -4.66e-4,-87.40674 0.0025,-0.001 -0.0044,-10e-4 0.001,-0.004 -0.0025,10e-4 -75.694871,-43.70134 0.427229,87.15718 0.0023,0 z" style="fill:#37abc8;fill-opacity:1;fill-rule:evenodd;stroke:#fff;stroke-width:0;stroke-linecap:butt;stroke-linejoin:round;stroke-miterlimit:4;stroke-dasharray:none;stroke-opacity:1"/><path style="fill:#f9f9f9;fill-opacity:1;fill-rule:evenodd;stroke:none;stroke-width:1px;stroke-linecap:butt;stroke-linejoin:miter;stroke-opacity:1" id="path4855" d="m 24.423532,965.30503 19.800512,11.56206 -1.24e-4,-22.9938 6.52e-4,-3.7e-4 -0.0012,-3.5e-4 2.75e-4,-10e-4 -6.52e-4,3.6e-4 -19.912778,-11.49635 0.112397,22.92815 6.12e-4,10e-4 z"/><path id="path4857" d="m 56.312707,983.82132 19.800511,11.56206 -1.23e-4,-22.9938 6.5e-4,-3.7e-4 -0.0012,-3.5e-4 2.75e-4,-10e-4 -6.52e-4,3.6e-4 -19.912777,-11.49635 0.112396,22.92815 6.12e-4,10e-4 z" style="fill:#f9f9f9;fill-opacity:1;fill-rule:evenodd;stroke:none;stroke-width:1px;stroke-linecap:butt;stroke-linejoin:miter;stroke-opacity:1"/><path id="path4859" d="m 151.98944,1001.018 0.28978,-10.69741 -51.17653,29.54721 -10e-4,-10e-4 7.1e-4,0 -0.003,6e-4 10e-4,0 6.3e-4,10.8628 50.88611,-29.7125 10e-4,0 z" style="fill:#fff;fill-opacity:1;fill-rule:evenodd;stroke:none;stroke-width:1px;stroke-linecap:butt;stroke-linejoin:miter;stroke-opacity:1"/><path style="fill:#fff;fill-opacity:1;fill-rule:evenodd;stroke:none;stroke-width:1px;stroke-linecap:butt;stroke-linejoin:miter;stroke-opacity:1" id="path4861" d="m 151.98944,981.98737 0.28978,-10.69742 -51.17653,29.54715 -10e-4,-10e-4 7.1e-4,0 -0.003,8e-4 10e-4,9e-4 6.3e-4,10.8628 50.88611,-29.71243 10e-4,0 z"/></g></g></svg>