<svg xmlns="http://www.w3.org/2000/svg" xmlns:svg="http://www.w3.org/2000/svg" xmlns:xlink="http://www.w3.org/1999/xlink" id="svg8" width="1920" height="1080" version="1.1" viewBox="0 0 508 285.75"><defs id="defs2"><linearGradient id="linearGradient4630"><stop style="stop-color:#424e4f;stop-opacity:1" id="stop4626" offset="0"/><stop style="stop-color:#080c0c;stop-opacity:1" id="stop4628" offset="1"/></linearGradient><linearGradient id="linearGradient4639" x1="508" x2="466.196" y1="11.25" y2="297" gradientUnits="userSpaceOnUse" xlink:href="#linearGradient4630"/></defs><metadata id="metadata5"/><g id="layer1" transform="translate(0,-11.25)"><rect style="fill:url(#linearGradient4639);fill-opacity:1;stroke-width:.26458332;opacity:1" id="rect3819" width="508" height="285.75" x="0" y="11.25"/><g id="g3815" transform="matrix(0.3332608,0,0,0.3332608,0.17173844,184.79305)" style="fill:#839ca0;fill-opacity:1"><text id="text3715" x="120.809" y="276.445" xml:space="preserve" style="font-style:normal;font-weight:400;font-size:23.09149742px;line-height:1.25;font-family:sans-serif;letter-spacing:0;word-spacing:0;fill:#839ca0;fill-opacity:1;stroke:none;stroke-width:.57728744"><tspan style="font-style:normal;font-variant:normal;font-weight:400;font-stretch:normal;font-size:36.94639587px;font-family:Comfortaa;-inkscape-font-specification:Comfortaa;fill:#839ca0;fill-opacity:1;stroke-width:.57728744" id="tspan3713" x="120.809" y="276.445">opendevshop<tspan style="font-size:23.11021042px" id="tspan4722" dy="-2.16 -.21">™</tspan></tspan></text><g style="fill:#839ca0;fill-opacity:1" id="layer1-4" transform="matrix(0.23193411,0,0,0.23193411,79.124927,43.203862)"><g style="fill:#839ca0;fill-opacity:1" id="g4946" transform="translate(1.1695387,-0.74733966)"><path id="path4289" d="m 99.28698,895.67093 -60.697472,33.10168 -0.09481,-0.0529 0.343218,66.81125 h 9.91e-4 v 0 l 60.352443,33.67044 v 0.1067 c 20.27762,-11.3088 40.54896,-22.6279 60.82771,-33.93474 l 2.7e-4,-66.58457 -60.72961,-33.12045 z m -51.793505,50.92577 15.975644,8.813 v 17.62597 l -15.886273,-8.86249 z m 25.58392,14.19304 15.975645,8.81296 h 9.9e-4 v 17.62597 l -15.886283,-8.8625 h -9.91e-4 z m 77.086035,7.9709 -0.23238,8.20157 h -9.9e-4 -9.9e-4 l -40.82487,22.77547 v -8.3262 h 9.9e-4 z m 0,14.58932 -0.23238,8.19981 h -9.9e-4 -9.9e-4 l -40.82487,22.77553 v -8.3264 h 9.9e-4 z" style="fill:#839ca0;fill-opacity:1;fill-rule:evenodd;stroke:#fff;stroke-width:0;stroke-linecap:butt;stroke-linejoin:round;stroke-miterlimit:4;stroke-dasharray:none;stroke-opacity:1"/></g></g></g></g></svg>